<svg width="53" height="52" viewBox="0 0 53 52" fill="none" xmlns="http://www.w3.org/2000/svg">
<path d="M5.57812 22.5221C5.38961 22.5222 5.20884 22.5971 5.07554 22.7304C4.94223 22.8637 4.8673 23.0445 4.86719 23.233V26.3815C4.86719 26.57 4.94209 26.7509 5.07542 26.8842C5.20874 27.0175 5.38957 27.0924 5.57812 27.0924C5.76668 27.0924 5.94751 27.0175 6.08083 26.8842C6.21416 26.7509 6.28906 26.57 6.28906 26.3815V23.233C6.28895 23.0445 6.21402 22.8637 6.08071 22.7304C5.94741 22.5971 5.76664 22.5222 5.57812 22.5221Z" fill="#998F6F"/>
<path d="M14.501 25.228C13.1551 25.228 11.8395 25.6271 10.7205 26.3748C9.60147 27.1225 8.7293 28.1853 8.21427 29.4287C7.69924 30.6721 7.56448 32.0403 7.82704 33.3602C8.0896 34.6802 8.73769 35.8927 9.68934 36.8444C10.641 37.796 11.8535 38.4441 13.1735 38.7067C14.4934 38.9692 15.8616 38.8345 17.105 38.3194C18.3484 37.8044 19.4112 36.9322 20.1589 35.8132C20.9066 34.6942 21.3057 33.3786 21.3057 32.0327C21.3036 30.2286 20.586 28.499 19.3104 27.2233C18.0347 25.9476 16.3051 25.2301 14.501 25.228ZM14.501 37.4155C13.4364 37.4155 12.3956 37.0998 11.5104 36.5084C10.6253 35.9169 9.93532 35.0762 9.52791 34.0926C9.1205 33.109 9.0139 32.0267 9.2216 30.9826C9.42929 29.9384 9.94196 28.9793 10.6948 28.2265C11.4476 27.4737 12.4067 26.961 13.4508 26.7533C14.495 26.5456 15.5773 26.6522 16.5609 27.0596C17.5445 27.4671 18.3852 28.157 18.9766 29.0422C19.5681 29.9274 19.8838 30.9681 19.8838 32.0327C19.8822 33.4598 19.3145 34.828 18.3054 35.8372C17.2963 36.8463 15.9281 37.4139 14.501 37.4155Z" fill="#998F6F"/>
<path d="M47.4219 36.0547H37.8994L37.9749 35.3202V35.3108L38.9499 25.8452C38.9497 25.8429 38.9497 25.8406 38.9499 25.8383L39.7437 18.1508C39.7539 18.0519 39.7431 17.9519 39.7122 17.8574C39.6813 17.7629 39.6309 17.6759 39.5643 17.602C39.4977 17.5282 39.4163 17.4691 39.3255 17.4287C39.2346 17.3882 39.1363 17.3673 39.0369 17.3672H26.1157C25.7572 16.5316 25.1995 15.7966 24.4913 15.2265C23.7831 14.6563 22.946 14.2683 22.0532 14.0964V10.4609C22.0531 10.3674 22.0347 10.2749 21.9988 10.1885C21.963 10.1022 21.9104 10.0238 21.8443 9.95774C21.7781 9.89171 21.6995 9.83938 21.6131 9.80372C21.5267 9.76807 21.4341 9.7498 21.3406 9.74996H16.4291V6.72868H20.4587C20.6472 6.72868 20.828 6.65378 20.9614 6.52045C21.0947 6.38713 21.1696 6.2063 21.1696 6.01775C21.171 5.17258 20.8592 4.35689 20.2942 3.72827C19.7293 3.09964 18.9514 2.70272 18.1109 2.61418L11.7426 1.93371C11.6434 1.92311 11.5431 1.9335 11.4482 1.96419C11.3533 1.99488 11.2659 2.0452 11.1918 2.11186C11.1176 2.17853 11.0583 2.26006 11.0177 2.35115C10.9771 2.44224 10.9561 2.54086 10.9561 2.64059V6.01775C10.9562 6.20626 11.0311 6.38703 11.1644 6.52034C11.2977 6.65364 11.4785 6.72858 11.667 6.72868H12.5697V9.74996H7.66219C7.47367 9.75007 7.2929 9.82501 7.1596 9.95831C7.02629 10.0916 6.95136 10.2724 6.95125 10.4609V14.0968C5.67945 14.3452 4.53333 15.0274 3.70866 16.0269C2.88398 17.0265 2.43192 18.2813 2.42969 19.5772V46.9218C2.43066 47.7566 2.76268 48.5568 3.35291 49.1471C3.94315 49.7373 4.7434 50.0693 5.57812 50.0703H23.4247C24.0488 50.0709 24.6588 49.885 25.1764 49.5365C25.2153 49.6889 25.3038 49.8241 25.4279 49.9208C25.5521 50.0174 25.7049 50.07 25.8622 50.0703H49.8594C50.0479 50.0702 50.2287 49.9952 50.362 49.8619C50.4953 49.7286 50.5702 49.5479 50.5703 49.3593V39.2031C50.5693 38.3684 50.2373 37.5681 49.6471 36.9779C49.0569 36.3876 48.2566 36.0556 47.4219 36.0547ZM49.1484 39.2031V39.3047H34.7266V39.2031C34.7271 38.7453 34.9092 38.3065 35.2329 37.9828C35.5565 37.6591 35.9954 37.4771 36.4531 37.4765H47.4219C47.8796 37.4771 48.3185 37.6591 48.6421 37.9828C48.9658 38.3065 49.1479 38.7453 49.1484 39.2031ZM36.4531 36.0547C35.6184 36.0556 34.8181 36.3876 34.2279 36.9779C33.6377 37.5681 33.3057 38.3684 33.3047 39.2031V43.3387H26.5037L25.7407 35.949H36.4808L36.4698 36.0547H36.4531ZM24.7649 26.4834H37.4562L36.6274 34.5272H25.5941L25.4697 33.3238L24.7649 26.4834ZM37.6024 25.0615H24.6166L23.9695 18.789H38.2487L37.6024 25.0615ZM12.3779 3.43156L17.9598 4.02793C18.3275 4.06676 18.6773 4.20687 18.9701 4.43265C19.263 4.65843 19.4874 4.96104 19.6185 5.30681H15.7279H15.7181H15.7084H13.2904H13.2806H13.2709H12.3771L12.3779 3.43156ZM13.9916 6.72868H15.0072V9.74996H13.9916V6.72868ZM20.6297 11.1718V13.9912H8.37312V11.1718H20.6297ZM23.4247 48.6484H5.57812C5.12038 48.6479 4.68153 48.4658 4.35785 48.1421C4.03418 47.8184 3.8521 47.3796 3.85156 46.9218V19.5772C3.85275 18.4731 4.29184 17.4147 5.07249 16.634C5.85315 15.8534 6.91161 15.4143 8.01562 15.4131H20.9872C21.6931 15.4119 22.3877 15.5906 23.0053 15.9326C23.6228 16.2745 24.143 16.7682 24.5167 17.3672H23.1809C23.0814 17.3671 22.983 17.388 22.892 17.4285C22.8011 17.4689 22.7196 17.528 22.6529 17.6019C22.5863 17.6758 22.5358 17.7629 22.505 17.8575C22.4741 17.9521 22.4634 18.0522 22.4737 18.1512L24.0861 33.7687L24.2449 35.3124V35.3165L25.1513 44.0862V46.9218C25.1507 47.3796 24.9686 47.8184 24.645 48.1421C24.3213 48.4658 23.8824 48.6479 23.4247 48.6484ZM26.5731 46.9218V44.7606H33.3047V48.6484H26.5731V46.9218ZM49.1484 48.6484H34.7266V40.7265H49.1484V48.6484Z" fill="#998F6F"/>
<path d="M41.938 41.6743C40.5567 41.6743 39.4326 43.0263 39.4326 44.6875C39.4326 46.3486 40.5567 47.7006 41.938 47.7006C43.3192 47.7006 44.4433 46.3486 44.4433 44.6875C44.4433 43.0263 43.3192 41.6743 41.938 41.6743ZM41.938 46.2788C41.3509 46.2788 40.8545 45.5499 40.8545 44.6875C40.8545 43.825 41.3509 43.0962 41.938 43.0962C42.525 43.0962 43.0214 43.825 43.0214 44.6875C43.0214 45.5499 42.525 46.2788 41.938 46.2788Z" fill="#998F6F"/>
</svg>
