<svg width="53" height="52" viewBox="0 0 53 52" fill="none" xmlns="http://www.w3.org/2000/svg">
<path d="M47.9843 6.86374H40.536C39.3819 6.44941 29.4502 3 18.6466 3C12.5723 3 8.38917 4.45336 5.94956 5.67279C5.20988 6.04148 4.58831 6.61007 4.15536 7.31407C3.7224 8.01807 3.49539 8.82931 3.50007 9.65577V17.7448C3.49545 18.5713 3.72249 19.3825 4.15543 20.0866C4.58837 20.7906 5.2099 21.3593 5.94956 21.7281C7.94518 22.701 10.063 23.4 12.2457 23.8062L14.8452 41.114C14.9139 41.5872 15.1513 42.0195 15.5136 42.3314C15.876 42.6433 16.3389 42.8137 16.8169 42.8112H17.9095V43.2821C17.9095 44.5734 18.4225 45.8117 19.3355 46.7247C20.2485 47.6378 21.4869 48.1507 22.7781 48.1507C24.0693 48.1507 25.3077 47.6378 26.2207 46.7247C27.1338 45.8117 27.6467 44.5734 27.6467 43.2821V39.0971C27.6473 38.5685 27.8576 38.0617 28.2313 37.688C28.6051 37.3142 29.1119 37.1039 29.6405 37.1033H34.1255C34.3018 37.1033 34.4708 37.0333 34.5955 36.9087C34.7201 36.7841 34.7901 36.615 34.7901 36.4388C34.7901 36.2625 34.7201 36.0934 34.5955 35.9688C34.4708 35.8442 34.3018 35.7742 34.1255 35.7742H29.6416C28.7606 35.7752 27.916 36.1256 27.2931 36.7485C26.6701 37.3715 26.3197 38.2161 26.3187 39.0971V43.2802C26.3187 44.2189 25.9458 45.1192 25.282 45.783C24.6182 46.4467 23.718 46.8196 22.7793 46.8196C21.8405 46.8196 20.9403 46.4467 20.2765 45.783C19.6127 45.1192 19.2398 44.2189 19.2398 43.2802V42.8093H20.1501C20.6787 42.8087 21.1855 42.5985 21.5593 42.2247C21.9331 41.8509 22.1433 41.3441 22.1439 40.8156V32.3266L24.4305 31.4171C24.5539 31.3678 24.6597 31.2826 24.7342 31.1725C24.8086 31.0624 24.8484 30.9325 24.8482 30.7996V26.8432C24.8483 26.7559 24.8311 26.6695 24.7977 26.5888C24.7644 26.5082 24.7154 26.4349 24.6537 26.3732C24.592 26.3114 24.5187 26.2625 24.438 26.2291C24.3574 26.1957 24.2709 26.1786 24.1836 26.1786H22.1424V24.2832C28.409 23.828 34.591 22.5683 40.536 20.5349H47.9843C48.1606 20.5349 48.3296 20.4649 48.4542 20.3403C48.5789 20.2156 48.6489 20.0466 48.6489 19.8703V7.52795C48.6488 7.35175 48.5787 7.18281 48.4541 7.05826C48.3295 6.9337 48.1605 6.86374 47.9843 6.86374ZM4.82925 17.7429V9.65577C4.82549 9.07643 4.98409 8.50762 5.28707 8.0138C5.59006 7.51999 6.02532 7.12092 6.54351 6.86184C8.85515 5.70659 12.8317 4.32918 18.6466 4.32918C28.5449 4.32918 37.7021 7.28869 39.7544 7.9981V19.4006C37.7037 20.1103 28.5449 23.0699 18.6466 23.0699C12.8313 23.0699 8.85515 21.6924 6.54351 20.5372C6.02526 20.2781 5.58996 19.879 5.28697 19.3851C4.98398 18.8912 4.82542 18.3223 4.82925 17.7429ZM23.5187 27.5078V30.3488L22.1424 30.8965V27.5078H23.5187ZM20.8132 31.8618V40.8152C20.813 40.9914 20.7429 41.1603 20.6183 41.2849C20.4937 41.4095 20.3248 41.4796 20.1486 41.4798H16.8169C16.6576 41.4806 16.5033 41.4238 16.3825 41.3199C16.2617 41.216 16.1825 41.072 16.1596 40.9143L13.6254 24.0413C15.2881 24.2833 16.9664 24.4028 18.6466 24.399C19.374 24.399 20.0956 24.384 20.8113 24.3538L20.8132 31.8618ZM47.3209 19.2057H41.0836V8.19254H47.3197L47.3209 19.2057Z" fill="#998F6F"/>
<path d="M24.0344 13.6996C24.0344 12.3326 23.629 10.9963 22.8696 9.85963C22.1101 8.723 21.0306 7.8371 19.7677 7.31397C18.5047 6.79084 17.115 6.65396 15.7743 6.92065C14.4335 7.18734 13.202 7.84562 12.2353 8.81225C11.2687 9.77887 10.6104 11.0104 10.3437 12.3512C10.0771 13.6919 10.2139 15.0816 10.7371 16.3446C11.2602 17.6075 12.1461 18.687 13.2827 19.4465C14.4194 20.2059 15.7557 20.6113 17.1227 20.6113C18.9553 20.6096 20.7123 19.8809 22.0081 18.585C23.304 17.2892 24.0327 15.5322 24.0344 13.6996ZM11.5865 14.3642H22.6619C22.5861 14.9877 22.4046 15.5937 22.1253 16.1563H12.1212C11.8424 15.5936 11.6616 14.9876 11.5865 14.3642ZM12.1212 11.2414H22.1272C22.4059 11.8046 22.5867 12.4111 22.6619 13.035H11.5865C11.6613 12.411 11.8422 11.8045 12.1212 11.2414ZM17.1242 8.11816C17.8925 8.11862 18.6523 8.27827 19.3558 8.58705C20.0593 8.89582 20.6912 9.34701 21.2116 9.91218H13.0364C13.5569 9.34699 14.1888 8.89578 14.8924 8.587C15.5959 8.27823 16.3559 8.11859 17.1242 8.11816ZM17.1242 19.2806C16.3558 19.2801 15.5958 19.1203 14.8922 18.8113C14.1887 18.5023 13.5568 18.0509 13.0364 17.4855H21.2116C20.6913 18.0509 20.0595 18.5023 19.356 18.8112C18.6525 19.1202 17.8926 19.28 17.1242 19.2806Z" fill="#998F6F"/>
</svg>
