<svg
    xmlns="http://www.w3.org/2000/svg"
    xmlns:xlink="http://www.w3.org/1999/xlink"
    viewBox="0,0,256,256"
    width="100px"
    height="100px"
    fill-rule="nonzero"
>
    <g
        fill="none"
        fill-rule="nonzero"
        stroke="none"
        stroke-width="1"
        stroke-linecap="butt"
        stroke-linejoin="miter"
        stroke-miterlimit="10"
        stroke-dasharray=""
        stroke-dashoffset="0"
        font-family="none"
        font-weight="none"
        font-size="none"
        text-anchor="none"
        style="mix-blend-mode: normal"
    >
        <g transform="scale(2.56,2.56)">
            <path
                d="M87.2,56.7c1.1,-2.2 1.8,-4.6 1.8,-7.2c0,-6.6 -4.2,-12.3 -10,-14.5v0c0,-11.6 -9.4,-21 -21,-21c-9.8,0 -18,6.7 -20.3,15.8c-1.5,-0.5 -3,-0.8 -4.7,-0.8c-7.7,0 -14,5.8 -14.9,13.3c-5.2,1.1 -9.1,5.7 -9.1,11.2c0,6.4 5.1,11.5 11.5,11.5c0.2,0 0.4,0 0.5,0c0,0.2 0,0.3 0,0.5c0,11.3 9.2,20.5 20.5,20.5c6.4,0 12.2,-3 15.9,-7.6c2.2,2.2 5.2,3.6 8.6,3.6c4.7,0 8.7,-2.7 10.7,-6.5c1.1,0.3 2.2,0.5 3.3,0.5c6.1,0 11,-4.9 11,-11c0,-3.3 -1.5,-6.3 -3.8,-8.3z"
                fill="#e9e1c9"
            ></path>
            <path
                d="M79.9,60.5c0,0 3.6,0 6.1,0c2.5,0 4.5,-2 4.5,-4.5c0,-2.3 -1.8,-4.2 -4.1,-4.5c0,-0.2 0.1,-0.4 0.1,-0.5c0,-2.5 -2,-4.5 -4.5,-4.5c-1.4,0 -2.7,0.7 -3.5,1.7c-0.1,-2.6 -2.3,-4.7 -5,-4.7c-2.8,0 -5,2.2 -5,5c0,0.4 0.1,0.9 0.2,1.3c-0.7,-0.8 -1.6,-1.3 -2.7,-1.3c-1.8,0 -3.2,1.3 -3.5,3.1c-0.2,0 -0.4,-0.1 -0.5,-0.1c-2.5,0 -4.5,2 -4.5,4.5c0,2.5 2,4.5 4.5,4.5c2.5,0 9.5,0 9.5,0h5.4v0.5h3z"
                fill="#fdfcef"
            ></path>
            <path
                d="M73.5,43c-3,0 -5.5,2.5 -5.5,5.5v0c-0.6,-0.4 -1.3,-0.5 -2,-0.5c-1.8,0 -3.4,1.3 -3.9,3h-0.1c-2.8,0 -5,2.2 -5,5c0,2.8 2.2,5 5,5h14.9c0.3,0 0.5,-0.2 0.5,-0.5c0,-0.3 -0.2,-0.5 -0.5,-0.5h-14.9c-2.2,0 -4,-1.8 -4,-4c0,-2.2 1.8,-4 4,-4c0.1,0 0.2,0 0.3,0h0.1c0,0 0,0 0.1,0c0.2,0 0.5,-0.2 0.5,-0.4c0.2,-1.5 1.5,-2.6 3,-2.6c0.9,0 1.7,0.4 2.3,1.1c0.1,0.1 0.2,0.2 0.4,0.2c0.1,0 0.2,0 0.2,-0.1c0.2,-0.1 0.3,-0.3 0.3,-0.6c-0.1,-0.4 -0.2,-0.8 -0.2,-1.2c0,-2.5 2,-4.5 4.5,-4.5c2.4,0 4.3,1.9 4.5,4.3c0,0.2 0.2,0.4 0.3,0.5c0.1,0 0.1,0 0.2,0c0.2,0 0.3,-0.1 0.4,-0.2c0.8,-1 1.9,-1.5 3.1,-1.5c2.2,0 4,1.8 4,4c0,0.1 0,0.2 0,0.3v0.1c0,0.1 0,0.3 0.1,0.4c0.1,0.1 0.2,0.2 0.3,0.2c2.1,0.2 3.6,1.9 3.6,4c0,2.2 -1.8,4 -4,4h-6.1c-0.3,0 -0.5,0.2 -0.5,0.5c0,0.3 0.2,0.5 0.5,0.5h6.1c2.8,0 5,-2.2 5,-5c0,-2.4 -1.7,-4.4 -4,-4.9v-0.1c0,-2.8 -2.2,-5 -5,-5c-1.2,0 -2.3,0.4 -3.2,1.2c-0.6,-2.4 -2.7,-4.2 -5.3,-4.2z"
                fill="#472b29"
            ></path>
            <path
                d="M72,50c-1.4,0 -2.6,1 -2.9,2.3c-0.4,-0.2 -0.8,-0.3 -1.2,-0.3c-1.2,0 -2.2,0.9 -2.4,2.1c-0.2,0 -0.4,-0.1 -0.6,-0.1c-1.5,0 -2.8,1.2 -2.9,2.7c0,0.1 0.1,0.3 0.2,0.3v0c0.1,0 0.2,-0.1 0.2,-0.2c0.1,-1.3 1.2,-2.3 2.4,-2.3c0.2,0 0.5,0 0.7,0.1c0,0 0,0 0.1,0c0.1,0 0.1,0 0.2,-0.1c0.1,0 0.1,-0.1 0.1,-0.2c0,-1 0.8,-1.9 1.9,-1.9c0.4,0 0.9,0.2 1.2,0.5c0,0 0.1,0.1 0.2,0.1h0.1c0.1,0 0.1,-0.1 0.2,-0.2c0.1,-1.3 1.2,-2.3 2.5,-2.3c0.2,0 0.4,0 0.7,0.1c0,0 0,0 0.1,0c0.1,0 0.2,-0.1 0.2,-0.2c0,-0.1 0,-0.3 -0.2,-0.3c-0.3,-0.1 -0.5,-0.1 -0.8,-0.1zM85.9,51.5c-1.3,0 -2.5,0.9 -2.9,2.2c0,0.1 0,0.3 0.2,0.3c0,0 0,0 0.1,0c0.1,0 0.2,-0.1 0.2,-0.2c0.3,-1.1 1.3,-1.8 2.4,-1.8c0.1,0 0.2,0 0.3,0v0c0.1,0 0.2,-0.1 0.2,-0.2c0,-0.1 -0.1,-0.3 -0.2,-0.3c0,0 -0.2,0 -0.3,0z"
                fill="#472b29"
            ></path>
            <path
                d="M15.4,51h-9.9c-0.3,0 -0.5,-0.2 -0.5,-0.5c0,-0.3 0.2,-0.5 0.5,-0.5h9.9c0.3,0 0.5,0.2 0.5,0.5c0,0.3 -0.2,0.5 -0.5,0.5zM18.5,51h-1c-0.3,0 -0.5,-0.2 -0.5,-0.5c0,-0.3 0.2,-0.5 0.5,-0.5h1c0.3,0 0.5,0.2 0.5,0.5c0,0.3 -0.2,0.5 -0.5,0.5zM23.5,53h-9c-0.3,0 -0.5,-0.2 -0.5,-0.5c0,-0.3 0.2,-0.5 0.5,-0.5h9c0.3,0 0.5,0.2 0.5,0.5c0,0.3 -0.2,0.5 -0.5,0.5zM12.5,53h-1c-0.3,0 -0.5,-0.2 -0.5,-0.5c0,-0.3 0.2,-0.5 0.5,-0.5h1c0.3,0 0.5,0.2 0.5,0.5c0,0.3 -0.2,0.5 -0.5,0.5zM9.5,53h-2c-0.3,0 -0.5,-0.2 -0.5,-0.5c0,-0.3 0.2,-0.5 0.5,-0.5h2c0.3,0 0.5,0.2 0.5,0.5c0,0.3 -0.2,0.5 -0.5,0.5zM15.5,55h-2c-0.3,0 -0.5,-0.2 -0.5,-0.5c0,-0.3 0.2,-0.5 0.5,-0.5h2c0.3,0 0.5,0.2 0.5,0.5c0,0.3 -0.2,0.5 -0.5,0.5zM18.5,46c-0.2,0 -0.8,0 -1,0c-0.3,0 -0.5,0.2 -0.5,0.5c0,0.3 0.2,0.5 0.5,0.5c0.2,0 0.8,0 1,0c0.3,0 0.5,-0.2 0.5,-0.5c0,-0.3 -0.2,-0.5 -0.5,-0.5zM18.5,48c-0.2,0 -4.8,0 -5,0c-0.3,0 -0.5,0.2 -0.5,0.5c0,0.3 0.2,0.5 0.5,0.5c0.2,0 4.8,0 5,0c0.3,0 0.5,-0.2 0.5,-0.5c0,-0.3 -0.2,-0.5 -0.5,-0.5zM23.5,50c-0.2,0 -2.8,0 -3,0c-0.3,0 -0.5,0.2 -0.5,0.5c0,0.3 0.2,0.5 0.5,0.5c0.2,0 2.8,0 3,0c0.3,0 0.5,-0.2 0.5,-0.5c0,-0.3 -0.2,-0.5 -0.5,-0.5z"
                fill="#ffffff"
            ></path>
            <g fill="#ffffff">
                <path d="M72.5,24h-10c-0.3,0 -0.5,-0.2 -0.5,-0.5c0,-0.3 0.2,-0.5 0.5,-0.5h10c0.3,0 0.5,0.2 0.5,0.5c0,0.3 -0.2,0.5 -0.5,0.5zM76.5,24h-2c-0.3,0 -0.5,-0.2 -0.5,-0.5c0,-0.3 0.2,-0.5 0.5,-0.5h2c0.3,0 0.5,0.2 0.5,0.5c0,0.3 -0.2,0.5 -0.5,0.5zM81.5,26h-10c-0.3,0 -0.5,-0.2 -0.5,-0.5c0,-0.3 0.2,-0.5 0.5,-0.5h10c0.3,0 0.5,0.2 0.5,0.5c0,0.3 -0.2,0.5 -0.5,0.5zM69.5,26h-1c-0.3,0 -0.5,-0.2 -0.5,-0.5c0,-0.3 0.2,-0.5 0.5,-0.5h1c0.3,0 0.5,0.2 0.5,0.5c0,0.3 -0.2,0.5 -0.5,0.5zM66.4,26h-1.9c-0.3,0 -0.5,-0.2 -0.5,-0.5c0,-0.3 0.2,-0.5 0.5,-0.5h1.9c0.3,0 0.5,0.2 0.5,0.5c0,0.3 -0.2,0.5 -0.5,0.5zM75.5,22h-5c-0.3,0 -0.5,-0.2 -0.5,-0.5c0,-0.3 0.2,-0.5 0.5,-0.5h5c0.3,0 0.5,0.2 0.5,0.5c0,0.3 -0.2,0.5 -0.5,0.5zM72.5,28h-2c-0.3,0 -0.5,-0.2 -0.5,-0.5c0,-0.3 0.2,-0.5 0.5,-0.5h2c0.3,0 0.5,0.2 0.5,0.5c0,0.3 -0.2,0.5 -0.5,0.5z"></path>
            </g>
            <g>
                <path
                    d="M37,71.3c-4,0 -7.3,-3.3 -7.3,-7.3v-28c0,-4 3.3,-7.3 7.3,-7.3h28c4,0 7.3,3.3 7.3,7.3v28c0,4 -3.3,7.3 -7.3,7.3z"
                    fill="#78a2d2"
                ></path>
                <path
                    d="M65,29.4c3.6,0 6.6,3 6.6,6.6v28c0,3.6 -3,6.6 -6.6,6.6h-28c-3.6,0 -6.6,-3 -6.6,-6.6v-28c0,-3.6 3,-6.6 6.6,-6.6h28M65,28h-28c-4.4,0 -8,3.6 -8,8v28c0,4.4 3.6,8 8,8h28c4.4,0 8,-3.6 8,-8v-28c0,-4.4 -3.6,-8 -8,-8z"
                    fill="#472b29"
                ></path>
            </g>
            <g fill="#472b29">
                <path d="M68.4,47.5c-0.3,0 -0.5,-0.2 -0.5,-0.5v-3.7c0,-0.3 0.2,-0.5 0.5,-0.5c0.3,0 0.5,0.2 0.5,0.5v3.7c0,0.3 -0.2,0.5 -0.5,0.5z"></path>
            </g>
            <g fill="#472b29">
                <path d="M68.5,41.1c-0.3,0 -0.5,-0.2 -0.5,-0.5v-1.9c0,-0.3 0.2,-0.5 0.5,-0.5c0.3,0 0.5,0.2 0.5,0.5v1.9c0,0.2 -0.2,0.5 -0.5,0.5z"></path>
            </g>
            <g fill="#472b29">
                <path d="M64.3,67.9h-26.5c-2.6,0 -4.7,-2.1 -4.7,-4.7v-26.5c0,-2.6 2.1,-4.7 4.7,-4.7h24c0.3,0 0.5,0.2 0.5,0.5c0,0.3 -0.3,0.5 -0.5,0.5h-24c-2.1,0 -3.7,1.7 -3.7,3.7v26.4c0,2.1 1.7,3.7 3.7,3.7h26.4c2.1,0 3.7,-1.7 3.7,-3.7v-13.5c0,-0.3 0.2,-0.5 0.5,-0.5c0.3,0 0.5,0.2 0.5,0.5v13.6c0.1,2.6 -2,4.7 -4.6,4.7z"></path>
            </g>
            <g>
                <path
                    d="M53.2,58.3c0,0.9 0.9,1.4 2.9,1.4v1.8h-10.2v-1.8c1.9,0 2.8,-0.5 2.8,-1.4v-9.4c0,-0.9 -0.9,-1.4 -2.8,-1.4v-1.8h7.3c0,0.1 0,12.6 0,12.6zM53.6,40.6c0,0.7 -0.3,1.3 -0.8,1.9c-0.5,0.5 -1.2,0.8 -2,0.8c-0.4,0 -0.8,-0.1 -1.1,-0.2c-0.3,-0.1 -0.6,-0.3 -0.9,-0.6c-0.3,-0.2 -0.5,-0.5 -0.6,-0.8c-0.2,-0.3 -0.2,-0.7 -0.2,-1c0,-0.7 0.3,-1.4 0.8,-1.9c0.6,-0.5 1.2,-0.8 2,-0.8c0.8,0 1.4,0.3 2,0.8c0.6,0.4 0.8,1 0.8,1.8z"
                    fill="#fdfcee"
                ></path>
                <path
                    d="M56.6,62h-11.2v-2.8h0.5c1.1,0 2.3,-0.2 2.3,-0.9v-9.4c0,-0.6 -0.8,-0.9 -2.3,-0.9h-0.5v-2.8h8.3v13.1c0,0.2 0,0.3 0.1,0.4c0.2,0.2 0.7,0.5 2.2,0.5h0.5v2.8zM46.4,61h9.2v-0.8c-1.2,-0.1 -2,-0.3 -2.5,-0.8c-0.3,-0.3 -0.4,-0.7 -0.4,-1.1v-12h-6.3v0.7c1.9,0.1 2.8,0.7 2.8,1.9v9.4c0,1.2 -1,1.8 -2.8,1.9zM50.8,43.7c-0.5,0 -0.9,-0.1 -1.3,-0.3c-0.4,-0.2 -0.7,-0.4 -1,-0.7c-0.3,-0.3 -0.5,-0.6 -0.7,-1c-0.2,-0.4 -0.3,-0.8 -0.3,-1.3c0,-0.9 0.3,-1.6 1,-2.2c0.7,-0.6 1.4,-0.9 2.3,-0.9c0.9,0 1.7,0.3 2.3,0.9c0.7,0.6 1,1.4 1,2.2c0,0.9 -0.3,1.6 -1,2.2c-0.6,0.8 -1.3,1.1 -2.3,1.1zM50.8,38.4c-0.6,0 -1.2,0.2 -1.7,0.6c-0.5,0.4 -0.7,0.9 -0.7,1.5c0,0.3 0.1,0.6 0.2,0.8c0.1,0.3 0.3,0.5 0.5,0.7c0.2,0.2 0.5,0.4 0.7,0.5c0.3,0.1 0.6,0.2 0.9,0.2c0.7,0 1.2,-0.2 1.6,-0.6c0.4,-0.4 0.7,-0.9 0.7,-1.5c0,-0.6 -0.2,-1.1 -0.7,-1.5c-0.3,-0.5 -0.8,-0.7 -1.5,-0.7z"
                    fill="#472b29"
                ></path>
            </g>
            <g>
                <path
                    d="M36.5,73.5c0,0 1.6,0 3.5,0c1.9,0 3.5,-1.6 3.5,-3.5c0,-1.8 -1.3,-3.2 -3.1,-3.5c0,-0.2 0.1,-0.4 0.1,-0.5c0,-1.9 -1.6,-3.5 -3.5,-3.5c-1,0 -2,0.5 -2.6,1.2c-0.4,-1.8 -2,-3.2 -3.9,-3.2c-2.2,0 -4,1.8 -4,4c0,0.2 0,0.4 0.1,0.6c-0.4,-0.3 -1,-0.6 -1.6,-0.6c-1.2,0 -2.2,0.9 -2.5,2.1c-0.2,0 -0.4,-0.1 -0.5,-0.1c-1.9,0 -3.5,1.6 -3.5,3.5c0,1.9 1.6,3.5 3.5,3.5c1.9,0 7.5,0 7.5,0v0.5h7z"
                    fill="#fdfcef"
                ></path>
                <path
                    d="M38.3,69c-0.1,0 -0.3,-0.1 -0.3,-0.3c0,-1.2 1,-2.2 2.2,-2.2c0,0 0.7,0 1.2,0.1c0.1,0 0.2,0.2 0.2,0.3c0,0.1 -0.2,0.2 -0.3,0.2c-0.4,-0.1 -1.1,-0.1 -1.1,-0.1c-0.9,0 -1.7,0.8 -1.7,1.7c0,0.2 -0.1,0.3 -0.2,0.3zM31.5,73c-0.27614,0 -0.5,0.22386 -0.5,0.5c0,0.27614 0.22386,0.5 0.5,0.5c0.27614,0 0.5,-0.22386 0.5,-0.5c0,-0.27614 -0.22386,-0.5 -0.5,-0.5z"
                    fill="#472b29"
                ></path>
                <path
                    d="M40,74h-3.5c-0.3,0 -0.5,-0.2 -0.5,-0.5c0,-0.3 0.2,-0.5 0.5,-0.5h3.5c1.7,0 3,-1.3 3,-3c0,-1.5 -1.1,-2.8 -2.6,-3c-0.1,0 -0.3,-0.1 -0.3,-0.2c0,-0.1 -0.1,-0.2 -0.1,-0.4c0,-0.2 0,-0.3 0,-0.5c0,-1.7 -1.3,-3 -3,-3c-0.8,0 -1.6,0.4 -2.2,1c-0.1,0.1 -0.3,0.2 -0.5,0.1c-0.2,0 -0.3,-0.2 -0.4,-0.4c-0.3,-1.6 -1.8,-2.8 -3.4,-2.8c-1.9,0 -3.5,1.6 -3.5,3.5c0,0.1 0,0.3 0,0.4c0,0.2 -0.1,0.4 -0.2,0.5c-0.1,0.1 -0.4,0.1 -0.6,0c-0.3,0 -0.8,-0.2 -1.2,-0.2c-1,0 -1.8,0.7 -2,1.6c0,0.3 -0.3,0.4 -0.6,0.4c-0.2,0 -0.3,0 -0.5,0c-1.7,0 -3,1.3 -3,3c0,1.7 1.3,3 3,3h7.5c0.3,0 0.5,0.2 0.5,0.5c0,0.3 -0.1,0.5 -0.4,0.5h-7.5c-2.2,0 -4,-1.8 -4,-4c0,-2.2 1.8,-4 4,-4c0.1,0 0.1,0 0.2,0c0.4,-1.2 1.5,-2 2.8,-2c0.3,0 0.7,0.1 1,0.2c0.2,-2.3 2.1,-4.2 4.5,-4.2c1.8,0 3.5,1.1 4.2,2.8c0.7,-0.5 1.5,-0.8 2.3,-0.8c2.2,0 4,1.8 4,4v0.1c1.7,0.4 3,2 3,3.9c0,2.2 -1.8,4 -4,4z"
                    fill="#472b29"
                ></path>
                <path
                    d="M34.5,73c-0.2,0 -0.8,0 -1,0c-0.3,0 -0.5,0.2 -0.5,0.5c0,0.3 0.2,0.5 0.5,0.5c0.2,0 0.8,0 1,0c0.3,0 0.5,-0.2 0.5,-0.5c0,-0.3 -0.2,-0.5 -0.5,-0.5z"
                    fill="#472b29"
                ></path>
            </g>
        </g>
    </g>
</svg>
