<svg width="53" height="52" viewBox="0 0 53 52" fill="none" xmlns="http://www.w3.org/2000/svg">
<path d="M48.7969 30.2188H34.7344V28.8125H35.4375C35.8258 28.8125 36.1406 28.4977 36.1406 28.1094C36.1406 27.7211 35.8258 27.4062 35.4375 27.4062H34.7344V26.7031C34.7344 25.1498 35.9936 23.8906 37.5469 23.8906C39.1002 23.8906 40.3594 25.1498 40.3594 26.7031C40.3594 27.0914 40.6742 27.4062 41.0625 27.4062C41.4508 27.4062 41.7656 27.0914 41.7656 26.7031C41.7656 24.3731 39.8769 22.4844 37.5469 22.4844C35.2169 22.4844 33.3281 24.3731 33.3281 26.7031V30.2188H21.5297C21.8808 29.8344 22.0763 29.3331 22.0781 28.8125V24.5938C22.0781 24.2054 21.7633 23.8906 21.375 23.8906H10.8281C10.4398 23.8906 10.125 24.2054 10.125 24.5938V28.8125C10.1268 29.3331 10.3223 29.8344 10.6734 30.2188H5.20312C4.81482 30.2188 4.5 30.5336 4.5 30.9219V47.7969C4.5 48.1852 4.81482 48.5 5.20312 48.5H48.7969C49.1852 48.5 49.5 48.1852 49.5 47.7969V30.9219C49.5 30.5336 49.1852 30.2188 48.7969 30.2188ZM11.5312 25.2969H20.6719V28.8125C20.6719 29.2008 20.3571 29.5156 19.9688 29.5156H12.2344C11.8461 29.5156 11.5312 29.2008 11.5312 28.8125V25.2969ZM15.75 47.0938H5.90625V38.6562H15.75V47.0938ZM15.75 37.25H5.90625V31.625H8.01562C8.01562 32.0133 8.33045 32.3281 8.71875 32.3281H12.9375C13.3258 32.3281 13.6406 32.0133 13.6406 31.625H15.75V37.25ZM36.8438 47.0938H17.1562V31.625H36.8438V47.0938ZM48.0938 47.0938H38.25V38.6562H48.0938V47.0938ZM48.0938 37.25H38.25V31.625H40.3594C40.3594 32.0133 40.6742 32.3281 41.0625 32.3281H45.2812C45.6696 32.3281 45.9844 32.0133 45.9844 31.625H48.0938V37.25Z" fill="#998F6F"/>
<path d="M18.5625 42.1719H35.4375C35.8258 42.1719 36.1406 41.8571 36.1406 41.4688V34.4375C36.1406 34.0492 35.8258 33.7344 35.4375 33.7344H18.5625C18.1742 33.7344 17.8594 34.0492 17.8594 34.4375V41.4688C17.8594 41.8571 18.1742 42.1719 18.5625 42.1719ZM19.2656 35.1406H34.7344V40.7656H19.2656V35.1406Z" fill="#998F6F"/>
<path d="M31.2188 44.2812H22.7812C22.3929 44.2812 22.0781 44.5961 22.0781 44.9844C22.0781 45.3727 22.3929 45.6875 22.7812 45.6875H31.2188C31.6071 45.6875 31.9219 45.3727 31.9219 44.9844C31.9219 44.5961 31.6071 44.2812 31.2188 44.2812Z" fill="#998F6F"/>
<path d="M12.2344 14.0469H41.7656C42.1539 14.0469 42.4688 13.7321 42.4688 13.3438V4.20312C42.4688 3.81482 42.1539 3.5 41.7656 3.5H12.2344C11.8461 3.5 11.5312 3.81482 11.5312 4.20312V13.3438C11.5312 13.7321 11.8461 14.0469 12.2344 14.0469ZM27.7031 4.90625H41.0625V12.6406H27.7031V4.90625ZM12.9375 4.90625H26.2969V12.6406H12.9375V4.90625Z" fill="#998F6F"/>
<path d="M22.0781 8.42188H16.4531C16.0648 8.42188 15.75 8.7367 15.75 9.125C15.75 9.5133 16.0648 9.82812 16.4531 9.82812H22.0781C22.4664 9.82812 22.7812 9.5133 22.7812 9.125C22.7812 8.7367 22.4664 8.42188 22.0781 8.42188Z" fill="#998F6F"/>
<path d="M37.5469 8.42188H31.9219C31.5336 8.42188 31.2188 8.7367 31.2188 9.125C31.2188 9.5133 31.5336 9.82812 31.9219 9.82812H37.5469C37.9352 9.82812 38.25 9.5133 38.25 9.125C38.25 8.7367 37.9352 8.42188 37.5469 8.42188Z" fill="#998F6F"/>
<path d="M12.5156 20.8672C11.9328 21.2028 11.5617 21.8125 11.5312 22.4844C11.5312 22.8727 11.8461 23.1875 12.2344 23.1875C12.6227 23.1875 12.9375 22.8727 12.9375 22.4844C12.9375 22.336 13.0078 22.258 13.3594 21.9922C13.9422 21.6566 14.3133 21.0468 14.3438 20.375C14.3133 19.7032 13.9422 19.0934 13.3594 18.7578C13.0043 18.4913 12.9375 18.4133 12.9375 18.2656C12.9375 18.118 13.0078 18.0406 13.3594 17.7734C13.9422 17.4379 14.3133 16.8281 14.3438 16.1562C14.3438 15.7679 14.0289 15.4531 13.6406 15.4531C13.2523 15.4531 12.9375 15.7679 12.9375 16.1562C12.9375 16.3032 12.8672 16.3813 12.5156 16.6484C11.9328 16.984 11.5617 17.5938 11.5312 18.2656C11.5617 18.9375 11.9328 19.5472 12.5156 19.8828C12.8672 20.1493 12.9375 20.2273 12.9375 20.375C12.9375 20.5227 12.8672 20.6 12.5156 20.8672Z" fill="#998F6F"/>
<path d="M16.875 17.7734C17.4578 17.4379 17.829 16.8281 17.8594 16.1562C17.8594 15.7679 17.5446 15.4531 17.1562 15.4531C16.7679 15.4531 16.4531 15.7679 16.4531 16.1562C16.4531 16.3032 16.3828 16.3813 16.0312 16.6484C15.4484 16.984 15.0773 17.5938 15.0469 18.2656C15.0773 18.9375 15.4484 19.5472 16.0312 19.8828C16.3828 20.1493 16.4531 20.2273 16.4531 20.375C16.4531 20.5227 16.3828 20.6014 16.0312 20.8672C15.4484 21.2028 15.0773 21.8125 15.0469 22.4844C15.0469 22.8727 15.3617 23.1875 15.75 23.1875C16.1383 23.1875 16.4531 22.8727 16.4531 22.4844C16.4531 22.336 16.5234 22.258 16.875 21.9922C17.4578 21.6566 17.829 21.0468 17.8594 20.375C17.829 19.7032 17.4578 19.0934 16.875 18.7578C16.5234 18.4913 16.4531 18.4133 16.4531 18.2656C16.4531 18.118 16.5234 18.0385 16.875 17.7734Z" fill="#998F6F"/>
<path d="M20.3906 17.7734C20.9734 17.4379 21.3446 16.8281 21.375 16.1562C21.375 15.7679 21.0602 15.4531 20.6719 15.4531C20.2836 15.4531 19.9688 15.7679 19.9688 16.1562C19.9688 16.3032 19.8984 16.3813 19.5469 16.6484C18.9641 16.984 18.5929 17.5938 18.5625 18.2656C18.5929 18.9375 18.9641 19.5472 19.5469 19.8828C19.8984 20.1493 19.9688 20.2273 19.9688 20.375C19.9688 20.5227 19.8984 20.6014 19.5469 20.8672C18.9641 21.2028 18.5929 21.8125 18.5625 22.4844C18.5625 22.8727 18.8773 23.1875 19.2656 23.1875C19.6539 23.1875 19.9688 22.8727 19.9688 22.4844C19.9688 22.336 20.0391 22.258 20.3906 21.9922C20.9734 21.6566 21.3446 21.0468 21.375 20.375C21.3446 19.7032 20.9734 19.0934 20.3906 18.7578C20.0391 18.4913 19.9688 18.4133 19.9688 18.2656C19.9688 18.118 20.0391 18.0385 20.3906 17.7734Z" fill="#998F6F"/>
</svg>
