<svg width="25" height="26" viewBox="0 0 25 26" fill="none" xmlns="http://www.w3.org/2000/svg">
<path d="M2.08301 5.70817C2.08301 5.13213 2.54967 4.6665 3.12467 4.6665H16.6663C17.2413 4.6665 17.708 5.13213 17.708 5.70817C17.708 6.28421 17.2413 6.74984 16.6663 6.74984H3.12467C2.54967 6.74984 2.08301 6.28421 2.08301 5.70817ZM21.8747 11.9582H3.12467C2.54967 11.9582 2.08301 12.4238 2.08301 12.9998C2.08301 13.5759 2.54967 14.0415 3.12467 14.0415H21.8747C22.4497 14.0415 22.9163 13.5759 22.9163 12.9998C22.9163 12.4238 22.4497 11.9582 21.8747 11.9582ZM12.4997 19.2498H3.12467C2.54967 19.2498 2.08301 19.7155 2.08301 20.2915C2.08301 20.8675 2.54967 21.3332 3.12467 21.3332H12.4997C13.0747 21.3332 13.5413 20.8675 13.5413 20.2915C13.5413 19.7155 13.0747 19.2498 12.4997 19.2498Z" fill="#998F6F"/>
</svg>
