<svg width="52" height="52" viewBox="0 0 52 52" fill="none" xmlns="http://www.w3.org/2000/svg">
<path d="M48.7052 6.78442H4.29395C3.83895 6.78442 3.48145 7.15005 3.48145 7.59692V38.2038C3.48145 38.6507 3.83895 39.0163 4.29395 39.0163H22.8921V41.3969C19.0814 41.7138 15.7502 42.5182 13.6133 43.6882C13.2233 43.9075 13.0771 44.395 13.2883 44.7932C13.4346 45.0613 13.7189 45.2157 14.0033 45.2157C14.1333 45.2157 14.2714 45.1832 14.3933 45.1182C16.4327 44.0051 19.8614 43.225 23.7046 42.965C24.6146 42.9082 25.5571 42.8757 26.4996 42.8757C27.4421 42.8757 28.3846 42.9082 29.2946 42.965C33.1369 43.225 36.5656 44.0051 38.6058 45.1182C39.0031 45.3294 39.4914 45.1832 39.71 44.7932C39.9213 44.395 39.775 43.9075 39.3858 43.6882C37.249 42.5182 33.9177 41.7138 30.1071 41.3969V39.0163H48.7052C49.1602 39.0163 49.5177 38.6507 49.5177 38.2038V7.59692C49.5177 7.15005 49.1602 6.78442 48.7052 6.78442ZM28.4821 41.2913C27.8313 41.2669 27.165 41.2507 26.4996 41.2507C25.8341 41.2507 25.1671 41.2669 24.5171 41.2913V39.0163H28.4821V41.2913ZM47.8927 37.3913H5.10645V8.40942H47.8927V37.3913Z" fill="#998F6F"/>
</svg>
