<svg width="53" height="52" viewBox="0 0 53 52" fill="none" xmlns="http://www.w3.org/2000/svg">
    <g clip-path="url(#clip0_246_1939)">
    <path d="M49.9 3.03335H48.6624C48.4457 2.53675 48.1402 2.08392 47.7611 1.69695C46.9477 0.887916 45.8473 0.433675 44.7 0.43335H11.7667C9.78828 0.439416 7.93719 1.40976 6.80673 3.03335H3.1C1.66404 3.03335 0.5 4.19739 0.5 5.63335C0.5 7.06931 1.66404 8.23335 3.1 8.23335H5.7V50.7C5.7 51.1786 6.08805 51.5667 6.56667 51.5667H41.2333C41.712 51.5667 42.1 51.1786 42.1 50.7V48.9667H48.1667C48.6453 48.9667 49.0333 48.5786 49.0333 48.1V8.23335H49.9C51.336 8.23335 52.5 7.06931 52.5 5.63335C52.5 4.19739 51.336 3.03335 49.9 3.03335ZM5.9366 4.83775C5.88547 5.01628 5.84993 5.20002 5.81613 5.38375C5.7988 5.47562 5.77367 5.56575 5.76067 5.65848C5.72123 5.93733 5.70097 6.21846 5.7 6.50002H3.1C2.62138 6.50002 2.23333 6.11197 2.23333 5.63335C2.23333 5.15473 2.62138 4.76668 3.1 4.76668H5.9522C5.94527 4.79008 5.94353 4.81435 5.9366 4.83775ZM40.3667 49.8334H7.43333V42.9H40.3667V49.8334ZM40.3667 41.1667H7.43333V37.7H40.3667V41.1667ZM41.1614 2.27935C41.1085 2.35475 41.06 2.43275 41.0123 2.51162C40.9421 2.62688 40.8771 2.74475 40.8173 2.86695C40.7775 2.95362 40.7393 3.03335 40.7038 3.11915C40.6821 3.17288 40.6535 3.22142 40.6345 3.27515L40.6293 3.28208C40.5794 3.33712 40.537 3.39822 40.5027 3.46408C40.4791 3.49431 40.4577 3.52616 40.4386 3.55942C40.3915 3.66677 40.367 3.7828 40.3667 3.90002V35.9667H7.43333V6.50002C7.42846 5.73789 7.63137 4.98887 8.02007 4.33335C8.79303 2.99457 10.2207 2.16885 11.7667 2.16668H41.2333C41.2065 2.20222 41.1865 2.24295 41.1614 2.27935ZM42.7777 3.01775C42.8867 2.89772 43.0069 2.7883 43.1365 2.69102C43.1703 2.66502 43.2085 2.64508 43.2431 2.62168C43.3438 2.55267 43.4492 2.49092 43.5586 2.43708C43.6089 2.41195 43.66 2.39028 43.712 2.36948C43.8197 2.32517 43.9303 2.28834 44.0431 2.25942C44.0933 2.24642 44.1427 2.23082 44.1939 2.22128C44.3604 2.1864 44.5299 2.16809 44.7 2.16668C45.3867 2.16668 46.0457 2.43762 46.5339 2.92068C46.5694 2.95708 46.6067 2.99522 46.6379 3.03335H42.7647L42.7777 3.01775ZM47.3 47.2333H42.1V8.23335H47.3V47.2333ZM49.9 6.50002H42.1V4.76668H49.9C50.3786 4.76668 50.7667 5.15473 50.7667 5.63335C50.7667 6.11197 50.3786 6.50002 49.9 6.50002Z" fill="#998F6F"/>
    </g>
</svg>
