<svg width="61" height="61" viewBox="0 0 61 61" fill="none" xmlns="http://www.w3.org/2000/svg">
<path d="M48.2888 52.7658C48.4634 53.0025 48.5369 53.2987 48.493 53.5895C48.4492 53.8803 48.2916 54.1417 48.055 54.3163C47.8071 54.4988 47.5566 54.6777 47.3036 54.853C47.1838 54.9358 47.0489 54.9943 46.9065 55.025C46.7641 55.0557 46.6171 55.058 46.4739 55.0319C46.3306 55.0058 46.1939 54.9517 46.0715 54.8727C45.9491 54.7937 45.8435 54.6914 45.7607 54.5717C45.6778 54.4519 45.6194 54.317 45.5887 54.1746C45.558 54.0322 45.5557 53.8852 45.5818 53.742C45.6079 53.5987 45.662 53.462 45.741 53.3396C45.8199 53.2172 45.9222 53.1116 46.042 53.0288C46.2769 52.8662 46.5092 52.7006 46.739 52.532C46.9756 52.3578 47.2717 52.2846 47.5623 52.3284C47.8528 52.3723 48.1141 52.5296 48.2888 52.7658ZM30.5005 0.832031C26.1461 0.834964 21.8459 1.79785 17.9061 3.65213C13.9663 5.50642 10.4837 8.20649 7.70632 11.5601C4.92895 14.9138 2.9251 18.8385 1.83743 23.0548C0.749766 27.2711 0.605031 31.6754 1.41353 35.9541C2.22204 40.2327 3.96389 44.2805 6.51509 47.8093C9.06628 51.338 12.3641 54.2609 16.1737 56.3699C19.9832 58.4788 24.2109 59.7219 28.5557 60.0107C32.9005 60.2995 37.2555 59.6269 41.3107 58.0408C41.5807 57.9307 41.7965 57.7188 41.9113 57.4508C42.0262 57.1829 42.0309 56.8804 41.9244 56.609C41.818 56.3376 41.6089 56.1191 41.3425 56.0007C41.0761 55.8823 40.7737 55.8736 40.501 55.9764C34.238 58.4359 27.2895 58.5077 20.9771 56.178C14.6646 53.8483 9.4287 49.2798 6.26511 43.3413C3.10152 37.4028 2.23098 30.5086 3.81909 23.9702C5.4072 17.4317 9.34315 11.705 14.8783 7.87928C20.4135 4.05359 27.1617 2.39582 33.8395 3.22128C40.5173 4.04674 46.6587 7.29783 51.0957 12.3562C55.5327 17.4146 57.9557 23.9273 57.9038 30.6557C57.852 37.3841 55.3289 43.8587 50.8145 48.8481C50.7137 48.9555 50.6352 49.0818 50.5838 49.2198C50.5323 49.3578 50.5089 49.5047 50.5148 49.6518C50.5207 49.799 50.5559 49.9435 50.6183 50.0769C50.6807 50.2103 50.769 50.3299 50.8781 50.4288C50.9873 50.5277 51.115 50.6039 51.2539 50.6529C51.3928 50.7019 51.54 50.7227 51.687 50.7142C51.834 50.7057 51.9779 50.6679 52.1102 50.6032C52.2425 50.5385 52.3605 50.448 52.4575 50.3372C56.3061 46.087 58.8386 40.8113 59.7476 35.15C60.6565 29.4888 59.903 23.6854 57.5783 18.4441C55.2536 13.2027 51.4577 8.7487 46.6512 5.62245C41.8447 2.49619 36.2342 0.83208 30.5005 0.832031ZM46.3892 30.4546C46.3918 30.8941 46.2771 31.3262 46.057 31.7066C45.8369 32.0869 45.5194 32.4017 45.1372 32.6185L24.9974 44.248C24.6174 44.467 24.1865 44.5822 23.748 44.582C23.3094 44.5818 22.8786 44.4662 22.4988 44.2468C22.1191 44.0274 21.8037 43.712 21.5844 43.3321C21.3651 42.9523 21.2496 42.5215 21.2495 42.0829V18.8251C21.2495 18.3863 21.365 17.9553 21.5843 17.5753C21.8037 17.1953 22.1192 16.8797 22.4991 16.6603C22.8791 16.4409 23.3101 16.3253 23.7489 16.3253C24.1876 16.3252 24.6187 16.4407 24.9987 16.66L45.1372 28.2889C45.5197 28.5058 45.8374 28.8209 46.0575 29.2016C46.2776 29.5823 46.3921 30.0149 46.3892 30.4546ZM44.1715 30.4546C44.1729 30.4049 44.1605 30.3557 44.1357 30.3125C44.1109 30.2693 44.0746 30.2339 44.0309 30.2101L23.8886 18.5805C23.8462 18.5546 23.7976 18.5406 23.7479 18.5399C23.6981 18.5408 23.6493 18.5548 23.6066 18.5805C23.5627 18.6042 23.5263 18.6396 23.5013 18.6828C23.4764 18.726 23.4639 18.7752 23.4653 18.8251V42.0829C23.4655 42.1324 23.4787 42.1809 23.5035 42.2237C23.5283 42.2664 23.564 42.3019 23.6068 42.3266C23.6496 42.3513 23.6982 42.3643 23.7477 42.3644C23.7971 42.3644 23.8457 42.3515 23.8886 42.3269L44.0309 30.6979C44.0744 30.6742 44.1106 30.639 44.1354 30.596C44.1602 30.5531 44.1727 30.5042 44.1715 30.4546Z" fill="white"/>
</svg>
