<svg width="53" height="52" viewBox="0 0 53 52" fill="none" xmlns="http://www.w3.org/2000/svg">
<g clip-path="url(#clip0_246_1885_randome)">
<path d="M52.2581 16.8063C38.0673 2.57783 15.0289 2.54738 0.800533 16.7383C0.777856 16.7609 0.755179 16.7836 0.732502 16.8063C0.414712 17.1354 0.423824 17.6598 0.752901 17.9776C1.0739 18.2877 1.58284 18.2877 1.90384 17.9776C15.4496 4.39748 37.4394 4.36963 51.0196 17.9154C51.0404 17.9361 51.0611 17.9569 51.0818 17.9776C51.4053 18.3025 51.9308 18.3036 52.2557 17.9801C52.5805 17.6566 52.5815 17.1311 52.2581 16.8063Z" fill="#998F6F"/>
<path d="M47.575 21.4892C41.9979 15.8768 34.4073 12.7289 26.4951 12.7473C18.5828 12.7289 10.9922 15.8768 5.41512 21.4892C5.09733 21.8183 5.10644 22.3428 5.43552 22.6606C5.75652 22.9706 6.26546 22.9706 6.58646 22.6606C17.5624 11.6654 35.3735 11.6498 46.3688 22.6257C46.3805 22.6373 46.3921 22.649 46.4037 22.6606C46.7328 22.9785 47.2571 22.9694 47.575 22.6403C47.885 22.3192 47.885 21.8102 47.575 21.4892Z" fill="#998F6F"/>
<path d="M42.8876 26.1779C38.5533 21.8091 32.6495 19.3587 26.4955 19.3743C20.3415 19.3587 14.4377 21.8091 10.1034 26.1779C9.78012 26.5018 9.78074 27.0265 10.1046 27.3496C10.4285 27.6728 10.9532 27.6723 11.2764 27.3484C19.6565 18.9431 33.2637 18.9227 41.669 27.3027C41.6842 27.3179 41.6994 27.3332 41.7146 27.3484C42.0379 27.6723 42.5625 27.6728 42.8864 27.3496C43.2103 27.0264 43.2108 26.5018 42.8876 26.1779Z" fill="#998F6F"/>
<path d="M38.2062 30.8582C35.1079 27.7401 30.8909 25.9911 26.4953 26.0014C22.0996 25.9911 17.8826 27.7401 14.7843 30.8582C14.4665 31.1873 14.4756 31.7117 14.8046 32.0296C15.1256 32.3396 15.6346 32.3396 15.9557 32.0296C21.7655 26.2087 31.194 26.1998 37.0148 32.0096C37.0215 32.0162 37.0282 32.0228 37.0348 32.0296C37.3639 32.3474 37.8883 32.3383 38.2062 32.0093C38.5162 31.6883 38.5162 31.1792 38.2062 30.8582Z" fill="#998F6F"/>
<path d="M33.5443 35.557C33.5376 35.5502 33.5309 35.5435 33.5241 35.5369C31.6616 33.6706 29.1319 32.6239 26.4952 32.6284C23.8586 32.6239 21.3289 33.6706 19.4664 35.5369C19.1365 35.8539 19.126 36.3782 19.443 36.7081C19.7599 37.038 20.2843 37.0485 20.6142 36.7315C20.621 36.725 20.6278 36.7183 20.6344 36.7114C23.8719 33.4762 29.1185 33.4762 32.3561 36.7114C32.6749 37.0396 33.1994 37.047 33.5275 36.7282C33.8556 36.4094 33.8631 35.8851 33.5443 35.557Z" fill="#998F6F"/>
<path d="M28.8394 40.2297C28.8386 40.2288 28.8379 40.2281 28.837 40.2273C27.5273 38.974 25.463 38.974 24.1533 40.2273C22.8587 41.5206 22.8576 43.6187 24.1509 44.9134C25.4443 46.208 27.5424 46.2091 28.837 44.9157C30.1317 43.6223 30.1327 41.5243 28.8394 40.2297ZM26.4952 44.2259C25.5801 44.2259 24.8384 43.4842 24.8384 42.5691C24.8384 41.6541 25.5801 40.9124 26.4952 40.9124C27.4102 40.9124 28.1519 41.6541 28.1519 42.5691C28.1519 43.4842 27.4101 44.2259 26.4952 44.2259Z" fill="#998F6F"/>
</g>
</svg>
