<svg width="22" height="21" viewBox="0 0 22 21" fill="none" xmlns="http://www.w3.org/2000/svg">
<path d="M5.89491 17.0213L5.89539 17.0211C5.93714 17.0091 5.98049 17.0029 6.02415 17.0029C6.10504 17.0029 6.1865 17.024 6.25804 17.0666C7.5534 17.8379 9.05053 18.2462 10.588 18.2462C15.0915 18.2462 18.7471 14.7662 18.7471 10.5C18.7471 6.23383 15.0915 2.75385 10.588 2.75385C6.08446 2.75385 2.42888 6.23383 2.42888 10.5C2.42888 12.0021 2.88207 13.4588 3.7401 14.7132L3.74026 14.7134C3.81094 14.8173 3.83172 14.9466 3.79526 15.067M5.89491 17.0213L6.20688 17.1526C7.51801 17.9332 9.03287 18.3462 10.588 18.3462C15.1419 18.3462 18.8471 14.8262 18.8471 10.5C18.8471 6.17383 15.1419 2.65385 10.588 2.65385C6.03413 2.65385 2.32888 6.17383 2.32888 10.5C2.32888 12.0225 2.7883 13.4989 3.65757 14.7696C3.7116 14.8491 3.72708 14.9471 3.69955 15.038C3.47346 15.7865 3.09122 17.1043 2.85898 17.909L2.97265 17.8758M5.89491 17.0213L2.97265 17.8758M5.89491 17.0213L2.93981 17.9896M3.79526 15.067L3.69959 15.038L3.79528 15.0669C3.79527 15.067 3.79526 15.067 3.79526 15.067ZM3.79526 15.067C3.57498 15.7963 3.2062 17.0668 2.97265 17.8758M2.97265 17.8758C2.96138 17.9148 2.95042 17.9528 2.93981 17.9896M2.93981 17.9896L5.92297 17.1173L2.93981 17.9896ZM5.96402 17.8934C7.35987 18.6836 8.95418 19.1 10.588 19.1C15.5721 19.1 19.6354 15.2471 19.6354 10.5C19.6354 5.7529 15.5721 1.9 10.588 1.9C5.60387 1.9 1.54062 5.7529 1.54062 10.5C1.54062 12.1033 2.00513 13.66 2.88631 15.0149C2.71046 15.6014 2.46965 16.4274 2.27013 17.1159C2.1678 17.4691 2.0763 17.7862 2.00995 18.0165L1.93109 18.2904L1.90917 18.3666L1.90318 18.3874L1.90152 18.3932L1.90092 18.3952L1.90068 18.396C1.8569 18.5486 1.90444 18.7105 2.02225 18.8182C2.13913 18.925 2.30624 18.962 2.458 18.9178L2.45811 18.9178L5.96402 17.8934Z" fill="none" stroke="#998f6f" stroke-width="0.5"/>
<path d="M16.9448 12.7998C16.978 12.6228 16.8824 12.4533 16.7211 12.3725C16.096 12.0585 15.5634 11.7436 15.1728 11.5126L15.1727 11.5126L15.1727 11.5126L15.17 11.511C14.8754 11.337 14.655 11.2068 14.4914 11.1325L14.4911 11.1324C14.0134 10.9169 13.6362 11.0641 13.4792 11.2073M16.9448 12.7998C16.9448 12.7999 16.9448 12.7999 16.9448 12.8L16.8465 12.7815L16.9448 12.7996C16.9448 12.7997 16.9448 12.7997 16.9448 12.7998ZM16.9448 12.7998C16.7798 13.6955 16.4021 14.3797 15.8081 14.8386C15.2151 15.2967 14.4182 15.5212 13.4316 15.5212C13.0969 15.5212 12.7403 15.4956 12.3609 15.4442L12.3609 15.4442C9.01114 14.9898 6.39447 12.1979 5.37512 9.8012L5.37512 9.8012C4.8995 8.68271 5.16399 7.66303 5.55187 6.92064C5.93908 6.17953 6.45354 5.70527 6.49888 5.66427L6.49914 5.66403C6.5612 5.60831 6.63893 5.57117 6.72197 5.55599L6.72221 5.55595C7.06796 5.49363 7.35937 5.46848 7.59258 5.4832C7.82329 5.49776 8.01193 5.55223 8.13596 5.66421L8.13602 5.66427C8.16923 5.6943 8.2134 5.74938 8.26178 5.81511C8.31198 5.88333 8.37196 5.97035 8.4377 6.07008C8.56925 6.26966 8.72557 6.52271 8.87557 6.7833C9.02545 7.04367 9.16992 7.31313 9.27726 7.54524C9.33089 7.66121 9.37596 7.76936 9.4078 7.86328C9.43882 7.95476 9.46048 8.04166 9.46048 8.11178C9.46048 8.55803 9.22001 8.93795 8.63101 9.49314C8.68502 9.69541 8.84007 9.95161 9.09683 10.2453C9.37379 10.562 9.76014 10.9123 10.2375 11.2721C10.7049 11.6241 11.1739 11.9211 11.5506 12.1333C11.739 12.2394 11.9035 12.3239 12.0326 12.3833C12.1459 12.4354 12.2239 12.4645 12.2658 12.475C12.2665 12.4747 12.2672 12.4744 12.2679 12.4741C12.2773 12.4699 12.2891 12.4637 12.3036 12.455C12.3327 12.4374 12.3686 12.4119 12.4106 12.3784C12.4945 12.3117 12.5972 12.2177 12.7101 12.104C12.9357 11.8768 13.1969 11.5761 13.4232 11.269L13.4233 11.2689C13.4397 11.2467 13.4586 11.226 13.4792 11.2073M13.4792 11.2073L13.5463 11.2815L13.4788 11.2077C13.479 11.2075 13.4791 11.2074 13.4792 11.2073ZM12.4889 14.6369L12.4889 14.6369C10.7684 14.4036 9.36305 13.5158 8.3018 12.4851C7.24006 11.454 6.52805 10.285 6.19488 9.50182L6.19488 9.50181C5.87377 8.74704 6.00759 8.03163 6.26449 7.45972C6.50963 6.91397 6.86406 6.506 7.02799 6.33459C7.14078 6.31823 7.25467 6.30652 7.3538 6.30035C7.43839 6.29509 7.50817 6.29413 7.5564 6.29677C7.67725 6.46004 7.9131 6.84066 8.13119 7.22284C8.24775 7.42709 8.3577 7.62911 8.44046 7.79477C8.48188 7.87769 8.51597 7.95046 8.54056 8.0093C8.56366 8.06457 8.57545 8.10081 8.57941 8.11997C8.57855 8.17947 8.56695 8.25642 8.47998 8.38951C8.38579 8.53366 8.20541 8.73994 7.86099 9.0516C7.77709 9.12712 7.72821 9.23185 7.72821 9.34357C7.72821 9.78256 7.9821 10.2476 8.34931 10.6892C8.71913 11.1339 9.21673 11.57 9.73207 11.9531C10.2478 12.3366 10.7847 12.6693 11.2356 12.9067C11.4609 13.0253 11.6661 13.1208 11.8373 13.1869C12.0046 13.2515 12.1514 13.2929 12.2548 13.2929C12.4239 13.2929 12.5974 13.2291 12.7642 13.133C12.932 13.0365 13.1002 12.9032 13.2609 12.7543C13.564 12.4735 13.8486 12.1293 14.0616 11.8487C14.0736 11.8526 14.0877 11.858 14.1042 11.8655L14.1042 11.8655C14.2206 11.9184 14.427 12.04 14.6984 12.2005L14.6984 12.2006C15.0385 12.4016 15.4874 12.6668 16.0163 12.9437C15.8886 13.4551 15.6559 13.9473 15.1643 14.2805C14.6475 14.6308 13.825 14.8185 12.4889 14.6369Z" fill="none" stroke="#998f6f" stroke-width="0.6"/>
</svg>
