<svg width="21" height="21" viewBox="0 0 21 21" fill="none" xmlns="http://www.w3.org/2000/svg">
<g clip-path="url(#clip0_312_535)">
<path d="M12.0449 19.983H12.0078C11.8898 19.9751 11.7773 19.9321 11.6858 19.86C11.5944 19.7879 11.5286 19.6903 11.4975 19.5807L9.27097 11.7588L1.12316 9.62408C1.00605 9.59595 0.901258 9.53285 0.823889 9.44388C0.746519 9.35492 0.700562 9.24467 0.692637 9.12902C0.684711 9.01338 0.715227 8.8983 0.779788 8.80037C0.844349 8.70244 0.939624 8.62671 1.05189 8.58408L19.6681 1.05229C19.7726 1.00999 19.8878 0.998561 19.9991 1.01946C20.1104 1.04035 20.2127 1.09263 20.2929 1.1696C20.373 1.24657 20.4275 1.34475 20.4493 1.45158C20.471 1.55841 20.4591 1.66905 20.415 1.76935L12.578 19.6491C12.5338 19.7494 12.4594 19.8347 12.3645 19.8941C12.2695 19.9536 12.1582 19.9846 12.0449 19.983ZM3.01614 8.9864L9.88676 10.7736C9.9822 10.7987 10.0692 10.8472 10.1392 10.9144C10.2092 10.9816 10.2597 11.0651 10.2859 11.1567L12.1589 17.7525L18.8214 2.5904L3.01614 8.9864Z" fill="#998F6F"/>
<path d="M9.78157 11.7559C9.66856 11.756 9.55807 11.7238 9.46414 11.6635C9.3702 11.6032 9.29705 11.5175 9.25398 11.4172C9.21091 11.3169 9.19985 11.2065 9.22222 11.1002C9.24458 10.9939 9.29936 10.8963 9.37959 10.8199L19.0726 1.51464C19.1812 1.42047 19.3234 1.37002 19.4697 1.37373C19.616 1.37743 19.7553 1.43501 19.8586 1.53454C19.9619 1.63407 20.0214 1.76793 20.0247 1.90841C20.0281 2.04888 19.975 2.18521 19.8765 2.28917L10.1835 11.5944C10.0771 11.6972 9.93254 11.7553 9.78157 11.7559Z" fill="#998F6F"/>
</g>
<defs>
<clipPath id="clip0_312_535">
<rect width="20.8333" height="20" fill="white" transform="translate(0.166016 0.5)"/>
</clipPath>
</defs>
</svg>
