<svg width="26" height="21" viewBox="0 0 26 21" fill="none" xmlns="http://www.w3.org/2000/svg">
<path d="M23.4371 17.9999H20.3119C19.8313 18.001 19.3769 17.7886 19.0813 17.4247L16.0343 13.6937C15.8975 13.5259 15.6652 13.4597 15.4552 13.5289C15.2454 13.5979 15.1041 13.7869 15.1033 13.9998V15.4998C15.1033 16.8811 13.7034 17.9999 11.9781 17.9999C11.3037 18.0057 10.6416 17.8257 10.0705 17.4811C5.69521 14.7936 2.72628 11.3999 0.148184 6.13756C-0.0789926 5.67321 -0.0431326 5.12958 0.243174 4.69636C0.529481 4.26314 1.02656 4.00057 1.56103 4.00002H4.68618C5.31144 3.99856 5.87737 4.35506 6.12496 4.9062L6.4765 5.69372C7.00772 6.87675 7.72092 7.97664 8.59262 8.95624C8.62104 8.98554 8.66148 9.00165 8.70325 9C8.74159 9.00348 8.77993 8.99121 8.80835 8.96613C8.83696 8.94123 8.85317 8.9057 8.85298 8.86872V6.91245C8.13807 6.66728 7.71043 5.96435 7.8388 5.24622C7.96717 4.52809 8.61474 4.0024 9.37391 4.00002H13.5407C14.4036 4.00002 15.1033 4.67164 15.1033 5.5V9C15.1037 9.2232 15.2582 9.41912 15.4819 9.4801C15.7057 9.54107 15.9443 9.45227 16.0669 9.26239L18.9771 4.7187C19.2592 4.27028 19.7662 3.99727 20.3119 4.00002H23.4371C24.0145 4.0002 24.5445 4.30617 24.8158 4.79542C25.087 5.28467 25.055 5.87774 24.7326 6.33751L21.4513 10.7062C21.3187 10.8814 21.3187 11.1185 21.4513 11.2937L24.7067 15.6248C25.0485 16.0819 25.0952 16.6841 24.8276 17.1847C24.56 17.6853 24.0231 17.9999 23.4371 17.9999ZM15.6242 12.4998C16.1049 12.4989 16.559 12.7111 16.8547 13.075L19.9016 16.806C20.0001 16.9278 20.1513 16.9994 20.3119 16.9998H23.4371C23.6332 17.0005 23.813 16.8952 23.9023 16.7277C23.9918 16.5599 23.9754 16.3585 23.8602 16.206L20.6049 11.8749C20.2105 11.3507 20.2105 10.643 20.6049 10.1188L23.8798 5.76257C23.9313 5.68383 23.9584 5.59283 23.9578 5.5C23.9578 5.22388 23.7247 4.99994 23.4371 4.99994H20.3119C20.1313 5.00013 19.9638 5.09003 19.8692 5.23743L16.9588 9.78112C16.5945 10.3557 15.8762 10.6272 15.2015 10.4452C14.5269 10.2634 14.0611 9.67254 14.0616 9V5.5C14.0616 5.22388 13.8284 4.99994 13.5407 4.99994H9.37391C9.08607 4.99994 8.85298 5.22388 8.85298 5.5C8.85298 5.77612 9.08607 6.00005 9.37391 6.00005H9.89464V8.86872C9.88872 9.34314 9.57838 9.76482 9.1143 9.9287C8.65041 10.0924 8.1293 9.96404 7.80465 9.60626C6.86638 8.5514 6.09807 7.36746 5.52602 6.0938L5.16781 5.30627C5.08636 5.12024 4.89638 4.99939 4.68618 4.99994H1.56103C1.38325 5.00086 1.21826 5.08875 1.12327 5.23303C1.02828 5.37732 1.01664 5.55804 1.09218 5.71258C3.61191 10.8561 6.37884 14.0249 10.6368 16.6436C11.0402 16.8807 11.5051 17.0043 11.9781 16.9998C13.1239 16.9998 14.0616 16.3248 14.0616 15.4998V13.9998C14.0616 13.1714 14.7611 12.4998 15.6242 12.4998Z" fill="#998F6F"/>
</svg>
