<?xml version="1.0" encoding="utf-8"?>
<svg version="1.1" xmlns:xlink="http://www.w3.org/1999/xlink" id="Layer_1" x="0px" y="0px" viewBox="0 0 1080 1080" style="enable-background:new 0 0 1080 1080;" xmlns="http://www.w3.org/2000/svg">
  <style type="text/css">
	.st0{fill:#333436;}
</style>
  <path class="st0" d="M 708.68 565.029 L 708.68 242.663 L 581.065 318.373 L 581.065 1.959 L 266.555 188.855 L 266.555 521.459 L 128.465 439.321 L 128.465 1065.485 L 207.509 1065.485 L 207.509 510.508 L 266.555 545.744 L 266.555 1066.913 L 287.505 1066.913 L 287.505 558.125 L 467.976 665.263 L 467.976 1065.485 L 488.926 1065.485 L 488.926 677.643 L 524.4 698.595 L 687.966 601.458 L 687.966 1065.485 L 708.916 1065.485 L 708.916 589.314 L 840.815 510.983 L 840.815 1065.723 L 920.097 1065.723 L 920.097 439.558 L 708.68 565.029 Z M 287.505 533.841 L 287.505 200.759 L 560.352 38.623 L 560.352 330.754 L 560.59 330.754 L 467.976 385.751 L 467.976 641.216 L 287.505 533.841 Z M 524.162 674.549 L 488.687 653.597 L 488.687 397.656 L 687.725 279.328 L 687.725 577.41 L 524.162 674.549 Z" style=""/>
</svg>
