<?xml version="1.0" encoding="utf-8"?>
<svg version="1.1" id="Layer_1" x="0px" y="0px" viewBox="0 0 1080 1080" style="enable-background:new 0 0 1080 1080;" xmlns="http://www.w3.org/2000/svg">
  <style type="text/css">
	.st0{fill:#333436;}
</style>
  <g style="" transform="matrix(1.779934, 0, 0, 1.779934, -428.192352, -423.123352)">
    <path class="st0" d="M354.7,738.7h10l40.4,98.4h-13.6l-13.4-32.3h-47.4l-13.1,32.3h-3L354.7,738.7z M376.9,802l-22.4-54.3h-0.3 L331.8,802H376.9z"/>
    <path class="st0" d="M421.5,738.7h29c24.7,0,38.9,10.5,38.9,28.1c0,17.4-14.2,28.1-38.9,28.1h-16.3v42.2h-12.6V738.7z M450.2,792.1 c16.7,0,26.6-9.4,26.6-25.3c0-16-9.8-25.3-26.6-25.3h-16v50.6H450.2z"/>
    <path class="st0" d="M533.7,738.7h10l40.4,98.4h-13.6L557,804.8h-47.4l-13.1,32.3h-3L533.7,738.7z M555.9,802l-22.3-54.3h-0.3 L510.8,802H555.9z"/>
    <path class="st0" d="M600.4,738.7h29.4c24,0,38.8,10.4,38.8,27.5c0,12.8-9.4,21.8-24.2,24.6l35.3,46.3h-15l-33.6-43.9 c-0.8,0.1-1.8,0.1-3,0.1h-15v43.7h-12.7L600.4,738.7L600.4,738.7z M629.4,790.6c17.4,0,27.4-9,27.4-24.6c0-15.5-10-24.5-27.4-24.5 h-16.3v49.1H629.4z"/>
    <path class="st0" d="M716.6,741.5h-36.1v-2.8h84.9v2.8h-36.1v95.6h-12.7L716.6,741.5L716.6,741.5z"/>
  </g>
  <path class="st0" d="M 668.783 430.177 L 668.783 189.174 L 573.378 245.776 L 573.378 9.223 L 338.248 148.948 L 338.248 397.604 L 235.012 336.197 L 235.012 804.32 L 294.106 804.32 L 294.106 389.417 L 338.248 415.76 L 338.248 805.388 L 353.911 805.388 L 353.911 425.016 L 488.832 505.112 L 488.832 804.32 L 504.494 804.32 L 504.494 514.368 L 531.015 530.032 L 653.297 457.411 L 653.297 804.32 L 668.96 804.32 L 668.96 448.333 L 767.568 389.772 L 767.568 804.498 L 826.84 804.498 L 826.84 336.375 L 668.783 430.177 Z M 353.911 406.86 L 353.911 157.847 L 557.893 36.634 L 557.893 255.032 L 558.071 255.032 L 488.832 296.148 L 488.832 487.135 L 353.911 406.86 Z M 530.837 512.054 L 504.316 496.391 L 504.316 305.048 L 653.118 216.585 L 653.118 439.433 L 530.837 512.054 Z" style=""/>
</svg>