<?xml version="1.0" encoding="utf-8"?>
<!-- Generator: Adobe Illustrator 24.1.2, SVG Export Plug-In . SVG Version: 6.00 Build 0)  -->
<svg version="1.1" id="Layer_1" xmlns="http://www.w3.org/2000/svg" xmlns:xlink="http://www.w3.org/1999/xlink" x="0px" y="0px"
	 viewBox="0 0 1080 1080" style="enable-background:new 0 0 1080 1080;" xml:space="preserve">
<style type="text/css">
	.st0{fill:#333436;}
</style>
<g>
	<path class="st0" d="M354.7,738.7h10l40.4,98.4h-13.6l-13.4-32.3h-47.4l-13.1,32.3h-3L354.7,738.7z M376.9,802l-22.4-54.3h-0.3
		L331.8,802H376.9z"/>
	<path class="st0" d="M421.5,738.7h29c24.7,0,38.9,10.5,38.9,28.1c0,17.4-14.2,28.1-38.9,28.1h-16.3v42.2h-12.6V738.7z M450.2,792.1
		c16.7,0,26.6-9.4,26.6-25.3c0-16-9.8-25.3-26.6-25.3h-16v50.6H450.2z"/>
	<path class="st0" d="M533.7,738.7h10l40.4,98.4h-13.6L557,804.8h-47.4l-13.1,32.3h-3L533.7,738.7z M555.9,802l-22.3-54.3h-0.3
		L510.8,802H555.9z"/>
	<path class="st0" d="M600.4,738.7h29.4c24,0,38.8,10.4,38.8,27.5c0,12.8-9.4,21.8-24.2,24.6l35.3,46.3h-15l-33.6-43.9
		c-0.8,0.1-1.8,0.1-3,0.1h-15v43.7h-12.7L600.4,738.7L600.4,738.7z M629.4,790.6c17.4,0,27.4-9,27.4-24.6c0-15.5-10-24.5-27.4-24.5
		h-16.3v49.1H629.4z"/>
	<path class="st0" d="M716.6,741.5h-36.1v-2.8h84.9v2.8h-36.1v95.6h-12.7L716.6,741.5L716.6,741.5z"/>
</g>
<path class="st0" d="M616.3,479.4V344l-53.6,31.8V242.9l-132.1,78.5v139.7l-58-34.5v263h33.2V456.5l24.8,14.8v218.9h8.8V476.5
	l75.8,45v168.1h8.8V526.7l14.9,8.8l68.7-40.8v194.9h8.8V489.6l55.4-32.9v233h33.3v-263L616.3,479.4z M439.4,466.3V326.4L554,258.3
	V381h0.1l-38.9,23.1v107.3L439.4,466.3z M538.8,525.4l-14.9-8.8V409.1l83.6-49.7v125.2L538.8,525.4z"/>
</svg>
