<?xml version="1.0" encoding="utf-8"?>
<!-- Generator: Adobe Illustrator 24.1.2, SVG Export Plug-In . SVG Version: 6.00 Build 0)  -->
<svg version="1.1" id="Layer_1" xmlns="http://www.w3.org/2000/svg" xmlns:xlink="http://www.w3.org/1999/xlink" x="0px" y="0px"
	 viewBox="0 0 1080 1080" style="enable-background:new 0 0 1080 1080;" xml:space="preserve">
<style type="text/css">
	.st0{fill:#333436;}
</style>
<g>
	<g>
		<path class="st0" d="M436.8,524.5h11l44.5,108.6h-15l-14.7-35.7h-52.3l-14.4,35.7h-3.3L436.8,524.5z M461.3,594.3l-24.7-59.9h-0.3
			l-24.8,59.9H461.3z"/>
		<path class="st0" d="M510.5,524.5h32c27.3,0,43,11.6,43,31c0,19.2-15.7,31-43,31h-18v46.5h-14V524.5z M542.1,583.4
			c18.5,0,29.3-10.4,29.3-27.9c0-17.7-10.9-27.9-29.3-27.9h-17.7v55.8L542.1,583.4L542.1,583.4z"/>
		<path class="st0" d="M634.2,524.5h11l44.5,108.6h-15L660,597.4h-52.3l-14.4,35.7H590L634.2,524.5z M658.7,594.3l-24.7-59.9h-0.3
			L609,594.3H658.7z"/>
		<path class="st0" d="M707.9,524.5h32.4c26.5,0,42.8,11.5,42.8,30.4c0,14.1-10.4,24-26.7,27.1l38.9,51h-16.6l-37.1-48.4
			c-0.9,0.2-2,0.2-3.3,0.2h-16.6v48.2h-14L707.9,524.5L707.9,524.5z M739.9,581.7c19.2,0,30.2-9.9,30.2-27.1c0-17.1-11-27-30.2-27
			h-18v54.1H739.9z"/>
		<path class="st0" d="M836,527.6h-39.9v-3.1h93.7v3.1H850v105.5h-14V527.6z"/>
	</g>
	<path class="st0" d="M328.5,523.6l-36.9,21.9v-56.3l-22.3,13.2v-55.5l-55,32.6v58.4l-24.1-14.3V633H204v-97l10.3,6.1V633h3.6v-88.7
		l31.5,18.7V633h3.6v-67.8l6.2,3.7l28.6-17V633h3.7v-83.2l23.1-13.7V633h13.9V523.6L328.5,523.6z M249.5,514.2v44.6l-31.5-18.7
		v-58.4l47.7-28.3v51.3L249.5,514.2z M287.9,547.7l-28.6,17l-6.2-3.7v-44.7l34.8-20.7L287.9,547.7L287.9,547.7z"/>
</g>
</svg>
