<?xml version="1.0" encoding="utf-8"?>
<svg version="1.1" id="Layer_1" x="0px" y="0px" viewBox="0 0 1080 1080" style="enable-background:new 0 0 1080 1080;" xmlns="http://www.w3.org/2000/svg">
  <style type="text/css">
	.st0{fill:#333436;}
</style>
  <rect style="stroke: rgb(0, 0, 0); fill: rgb(233, 225, 201); stroke-width: 0px;" width="1080" height="1080" rx="50" ry="50"/>
  <path class="st0" d="M 719.7 565.433 L 719.7 248.379 L 594.189 322.842 L 594.189 11.643 L 284.861 195.459 L 284.861 522.581 L 149.048 441.796 L 149.048 1057.64 L 226.79 1057.64 L 226.79 511.811 L 284.861 546.466 L 284.861 1059.045 L 305.467 1059.045 L 305.467 558.643 L 482.963 664.015 L 482.963 1057.64 L 503.568 1057.64 L 503.568 676.191 L 538.457 696.798 L 699.327 601.261 L 699.327 1057.64 L 719.932 1057.64 L 719.932 589.318 L 849.656 512.277 L 849.656 1057.875 L 927.633 1057.875 L 927.633 442.031 L 719.7 565.433 Z M 305.467 534.758 L 305.467 207.167 L 573.817 47.704 L 573.817 335.019 L 574.051 335.019 L 482.963 389.11 L 482.963 640.365 L 305.467 534.758 Z M 538.223 673.147 L 503.334 652.542 L 503.334 400.818 L 699.092 284.44 L 699.092 577.61 L 538.223 673.147 Z" style="fill: rgb(0, 0, 0);"/>
</svg>