<?xml version="1.0" encoding="utf-8"?>
<svg version="1.1" id="Layer_1" x="0px" y="0px" viewBox="0 0 1080 1080" style="enable-background:new 0 0 1080 1080;" xmlns="http://www.w3.org/2000/svg">
  <style type="text/css">
	.st0{fill:#333436;}
</style>
  <rect style="stroke: rgb(0, 0, 0); stroke-width: 0px;" x="0" y="0" width="1080" height="1080" rx="150" ry="150"/>
  <path class="st0" d="M 720.911 559.379 L 720.911 242.325 L 595.4 316.788 L 595.4 5.589 L 286.072 189.405 L 286.072 516.527 L 150.259 435.742 L 150.259 1051.586 L 228.001 1051.586 L 228.001 505.757 L 286.072 540.412 L 286.072 1052.991 L 306.678 1052.991 L 306.678 552.589 L 484.174 657.961 L 484.174 1051.586 L 504.779 1051.586 L 504.779 670.137 L 539.668 690.744 L 700.538 595.207 L 700.538 1051.586 L 721.143 1051.586 L 721.143 583.264 L 850.867 506.223 L 850.867 1051.821 L 928.844 1051.821 L 928.844 435.977 L 720.911 559.379 Z M 306.678 528.704 L 306.678 201.113 L 575.028 41.65 L 575.028 328.965 L 575.262 328.965 L 484.174 383.056 L 484.174 634.311 L 306.678 528.704 Z M 539.434 667.093 L 504.545 646.488 L 504.545 394.764 L 700.303 278.386 L 700.303 571.556 L 539.434 667.093 Z" style="fill: rgb(255, 255, 255);"/>
</svg>